<?xml version="1.0" encoding="UTF-8" standalone="no"?>
<svg
   viewBox="0 0 242.45009 297.21986"
   version="1.1"
   id="svg52"
   width="242.45009"
   height="297.21985"
   xmlns="http://www.w3.org/2000/svg"
   xmlns:svg="http://www.w3.org/2000/svg">
  <defs
     id="defs2">
    <style
       id="style1">
      .cls-1 {
        fill: #c67924;
      }

      .cls-2 {
        fill: #a44819;
      }

      .cls-3 {
        fill: #e2cba2;
      }

      .cls-4 {
        fill: none;
      }

      .cls-5 {
        clip-path: url(#clippath-1);
      }

      .cls-6 {
        fill: #f26c37;
      }

      .cls-7 {
        fill: #588372;
      }

      .cls-8 {
        fill: #d0d2c1;
      }

      .cls-9 {
        fill: #ce8a39;
      }

      .cls-10 {
        fill: #599360;
      }

      .cls-11 {
        fill: #6b2b2c;
      }

      .cls-12 {
        fill: #45657c;
      }

      .cls-13 {
        clip-path: url(#clippath);
      }
    </style>
  </defs>
  <g
     id="Camada_6"
     transform="translate(-19.683523,-660.20015)">
    <g
       id="ponte">
      <path
         class="cls-2"
         d="m 169.95,713.66 c 1.25,-6.44 -0.28,-11.88 -1.28,-13.29 -1.22,-1.72 -6.92,-6.63 -8.49,-8.72 -2.35,-3.14 -9.4,-7.34 -14.1,-8.94 -4.63,-1.58 -10.03,0.02 -12.71,-0.9 -2.67,-0.92 -8.67,2.98 -10.74,4.37 -0.82,0.55 -3.45,2.86 -4.86,12.29 0.41,-0.11 0.48,-6.27 3.79,-7.66 2.06,-0.86 3.94,-1.19 6.5,-0.65 l -1.21,6.88 c -3.71,-0.12 -6.89,0.31 -9.08,1.43 -0.85,3.3 -0.18,7.95 0.37,10.51 0.79,3.65 1.2,8.56 4.43,10.76 3.23,2.21 3.44,4.56 7.62,6.89 l -1,-19.43 28.34,8.44 0.86,14.19 c 0,0 7.72,-4.5 10.56,-12.47 0.33,-0.91 0.58,-1.82 0.79,-2.71 -0.72,-0.91 -1.89,-2.2 -3.61,-3.66 l 0.68,-2.47 c 1.41,1.62 2.5,3.34 3.13,5.15 z m -15.74,-14.17 -1.07,3.96 c -3.6,-1.52 -7.5,-2.87 -11.39,-3.93 l 1.51,-4.63 c 3.69,1.31 7.45,2.84 10.96,4.6 z m -25.53,-2.37 0.53,-6.32 c 3.47,0.79 7.75,1.95 12.23,3.46 l -0.92,4.93 c -4.12,-1.06 -8.18,-1.79 -11.84,-2.06 z m 25.35,6.71 1.15,-3.84 c 2.38,1.24 4.63,2.59 6.63,4.05 l -0.94,3.24 c -2.05,-1.21 -4.37,-2.37 -6.85,-3.46 z m 10.96,6.23 c -0.91,-0.7 -1.94,-1.43 -3.12,-2.16 l 0.76,-3.25 c 1.2,0.92 2.28,1.88 3.25,2.87 z"
         id="path42" />
      <path
         class="cls-2"
         d="m 260.71,846.44 c -2.67,-30.69 -1.5,-43.68 -0.47,-55.13 0.17,-1.87 0.33,-3.67 0.47,-5.49 1.05,-13.54 1.42,-60.26 -0.01,-74.58 -1.33,-13.32 0.01,-41.53 0.03,-41.81 l 0.34,-7.01 -5.74,0.56 c -0.29,0.03 -29.7,2.83 -62.58,0 -31.72,-2.73 -89.25,-4.6 -112.01,0.07 -20.38,4.18 -54.15,0 -54.49,-0.05 l -6.14,-0.78 0.64,7.49 c 0.02,0.24 2.04,24.25 0.02,42.5 -1.79,16.1 -1.02,67.56 -0.16,110.59 l 0.11,5.73 c 0.08,4.09 0.22,8.92 0.36,14.04 0.55,19.21 1.31,45.52 -0.34,63.61 -2.17,23.86 -0.08,43.29 0.01,44.1 l 0.48,4.36 3.54,0.82 c 0.51,0.12 8.63,1.96 19.08,1.96 5.41,0 11.45,-0.49 17.39,-1.98 9.15,-2.29 28.32,-1.21 43.73,-0.34 11.89,0.67 22.16,1.25 27.51,0.42 13.29,-2.06 94.78,-2.73 102.49,-0.17 10.53,3.5 21.52,0.17 21.98,0.03 l 3.55,-1.1 0.21,-4.46 c 0.13,-2.72 3.15,-66.92 -0.02,-103.37 z m -8.88,21.32 c -4.08,0.16 -8.23,0.41 -12.42,0.74 l -2.28,-3.41 c 5.06,0.48 9.96,1.12 14.68,1.94 0,0.24 0.01,0.49 0.02,0.73 z M 29.81,925.26 46.29,900.17 C 60.28,893.8 76.27,887.91 93.34,882.81 L 79.9,910.95 c -18.11,8.22 -35.02,17.31 -49.92,27.03 -0.14,-3.57 -0.23,-7.9 -0.17,-12.72 z m 1.28,-83.14 c -0.15,-5.08 -0.29,-9.87 -0.36,-13.89 l -0.11,-5.75 c -0.11,-5.37 -0.25,-12.66 -0.4,-20.95 l 102.86,-70.6 c 0.18,2.83 0.39,5.98 0.62,9.48 L 31.16,844.65 c -0.02,-0.85 -0.05,-1.71 -0.07,-2.53 z m 219.09,-1.43 -93.83,-104.57 c -0.07,-1.24 -0.14,-2.43 -0.2,-3.57 l 93.09,72.54 c -0.33,8.56 -0.24,19.64 0.94,35.61 z m -92.39,-79.29 47.32,97.66 c -5.94,0.16 -11.98,0.49 -18.08,0.96 l -28.48,-85.35 c -0.25,-4.45 -0.51,-8.91 -0.75,-13.27 z m 0.02,-3.95 -0.24,0.17 c -0.17,-3.03 -0.34,-5.98 -0.5,-8.83 l 74.17,110.74 c -7.79,-0.52 -15.89,-0.67 -24.21,-0.5 z m 3.04,57.93 c -0.51,-9 -1.21,-21.33 -1.94,-34.2 l 26.36,78.98 c -4.68,0.39 -9.39,0.86 -14.12,1.42 -5.23,-12.64 -9.33,-29.15 -10.29,-46.2 z m -23.41,6 -14.59,48.55 c -8.27,1.87 -16.43,3.95 -24.39,6.2 l 38.78,-81.21 c 0.36,8.7 0.49,17.53 0.19,26.45 z m -0.34,7.04 c -0.79,13.16 -2.63,26.47 -6.17,39.76 -2.06,0.43 -4.12,0.87 -6.17,1.33 l 12.35,-41.09 z m -40.87,48.35 c -16.1,4.64 -31.33,9.99 -44.95,15.8 l 84.09,-128.04 c 0.11,1.5 0.22,3.03 0.33,4.6 0.52,7.23 1.02,14.61 1.38,22.1 z M 31.24,847.23 133.87,742.89 c 0.37,5.45 0.8,11.66 1.29,18.7 L 48.29,893.87 c -6.1,2.68 -11.85,5.45 -17.19,8.29 1.07,-16.74 0.61,-37.84 0.13,-54.92 z m 11.98,54.36 -13.34,20.32 c 0.11,-4.37 0.36,-9.07 0.79,-13.95 3.94,-2.16 8.14,-4.29 12.55,-6.36 z m 52.37,-19.44 c 8.33,-2.44 16.9,-4.69 25.6,-6.71 l -6.4,21.3 c -11.09,4.04 -21.95,8.42 -32.43,13.1 l 13.23,-27.7 z m 27.51,-7.14 c 2.08,-0.47 4.17,-0.94 6.27,-1.39 -2.1,6.93 -4.68,13.85 -7.85,20.73 -1.58,0.55 -3.16,1.11 -4.74,1.67 l 6.31,-21.01 z m 56.83,2.66 c -2.27,-2.99 -4.52,-6.8 -6.64,-11.27 4.57,-0.52 9.12,-0.95 13.63,-1.31 l 3.46,10.36 c -3.47,0.7 -6.96,1.43 -10.45,2.21 z m 12.13,-2.55 -3.39,-10.16 c 6.38,-0.47 12.68,-0.77 18.86,-0.88 l 3.73,7.69 c -6.34,0.96 -12.75,2.08 -19.2,3.35 z m 21.01,-3.63 -3.61,-7.45 c 8.75,-0.11 17.25,0.15 25.37,0.84 l 2.53,3.78 c -7.94,0.67 -16.06,1.62 -24.29,2.83 z m 20.44,-11.8 -76.63,-114.42 c -0.12,-2.15 -0.24,-4.23 -0.35,-6.21 l 93.89,104.64 c 0.1,1.31 0.21,2.65 0.33,4.02 0.38,4.32 0.66,9.1 0.87,14.14 -5.79,-0.98 -11.84,-1.69 -18.11,-2.17 z M 30.69,713.83 c 1.48,-13.39 1,-29.05 0.51,-38.05 10.99,1.06 34.65,2.69 51.2,-0.7 21,-4.31 77.17,-2.73 109.65,0.07 25.03,2.16 48.1,1.12 58.41,0.43 -0.33,9.59 -0.72,26.89 0.31,37.13 1.34,13.42 0.97,59.18 -0.01,71.96 -0.14,1.75 -0.29,3.5 -0.45,5.3 -0.34,3.77 -0.71,7.86 -0.95,12.77 l -93.33,-72.73 c -0.43,-7.56 -0.7,-11.51 -0.7,-11.51 l -23.44,-6.31 c 0,0 0.29,-0.41 1.14,12.74 l 0.12,3.28 -102.95,71.02 c -0.51,-30.2 -0.95,-72.22 0.51,-85.39 z m 28.55,229.64 c -7.1,1.78 -14.53,1.92 -20.51,1.55 58.01,-36.39 144.44,-63.3 213.32,-66.08 0.02,1.33 0.03,2.66 0.04,4 -49.71,5.97 -122.47,47.99 -142.72,60.17 -1.3,-0.07 -2.61,-0.15 -3.93,-0.22 -16.79,-0.94 -35.83,-2.02 -46.2,0.58 z m 191.7,0.83 c -3.33,0.52 -8.5,0.87 -13.32,-0.73 -10.71,-3.56 -94.79,-1.96 -106.39,-0.17 -2.66,0.41 -7.38,0.38 -13.04,0.15 26.37,-15.41 89.54,-50.01 133.93,-55.49 0.04,23.32 -0.78,46.48 -1.18,56.24 z"
         id="path43" />
    </g>
  </g>
</svg>
