<?xml version="1.0" encoding="UTF-8" standalone="no"?>
<svg
   viewBox="0 0 212.26744 272.63416"
   version="1.1"
   id="svg52"
   width="212.26744"
   height="272.63416"
   xmlns="http://www.w3.org/2000/svg"
   xmlns:svg="http://www.w3.org/2000/svg">
  <defs
     id="defs2">
    <style
       id="style1">
      .cls-1 {
        fill: #c67924;
      }

      .cls-2 {
        fill: #a44819;
      }

      .cls-3 {
        fill: #e2cba2;
      }

      .cls-4 {
        fill: none;
      }

      .cls-5 {
        clip-path: url(#clippath-1);
      }

      .cls-6 {
        fill: #f26c37;
      }

      .cls-7 {
        fill: #588372;
      }

      .cls-8 {
        fill: #d0d2c1;
      }

      .cls-9 {
        fill: #ce8a39;
      }

      .cls-10 {
        fill: #599360;
      }

      .cls-11 {
        fill: #6b2b2c;
      }

      .cls-12 {
        fill: #45657c;
      }

      .cls-13 {
        clip-path: url(#clippath);
      }
    </style>
  </defs>
  <g
     id="Camada_7"
     transform="translate(-665.8834,-351.56585)">
    <path
       id="cacto"
       class="cls-7"
       d="m 877.82,490.99 c -0.58,-2.64 -0.73,-10.51 0,-15.33 0.79,-5.19 -0.02,-13.6 -0.51,-16.87 -1.34,-9.08 -9.31,-14.41 -20.06,-14.41 v 0 c -10.75,0 -20.93,8.78 -19.22,13.94 1.71,5.16 -2.31,12.63 -0.24,18.55 2.07,5.92 0,19.43 0,19.43 0,4.6 -5.93,8.1 -6.99,11.31 -0.53,1.59 -5.12,5.58 -8.83,5.93 -3.71,0.35 -8.23,3.62 -8.23,3.62 0,0 2.11,-18.08 2.48,-27.46 0.37,-9.38 -0.54,-17.28 0,-26.92 0.54,-9.64 -0.31,-16.81 0,-24.75 0.31,-7.94 0.31,-15.08 2.19,-24.28 1.88,-9.21 -0.65,-13.17 0.23,-22.81 0.88,-9.64 -3.44,-14.77 -7.53,-21.46 -3.48,-5.69 -10.67,-10.32 -16.27,-14.24 -6.72,-4.7 -11.28,-3.55 -19.82,-3.55 v 0 c -7.27,0 -17.94,2.88 -23.96,6.4 -8.25,4.83 -11.12,11.53 -15.2,19.79 -2.79,5.64 -5.55,8.03 -4.82,17.89 0.73,9.86 2.7,13.74 3.42,22.26 0.72,8.53 1.3,14.75 2.73,22.42 1.42,7.67 -0.89,11.42 -0.89,11.42 0,0 -13.18,-9.67 -17.64,-9.87 -4.46,-0.2 -11.22,-10.76 -11.22,-18.14 0,0 -0.82,-13.89 0.21,-17.69 1.02,-3.8 -0.06,-8.69 -0.21,-12.29 -0.22,-5.29 -7.65,-9.27 -8.01,-12.73 -0.37,-3.46 -7.92,-4.23 -11.45,-4.74 -3.56,-0.52 -8.31,2.69 -12.2,4.76 -3.89,2.07 -6.34,8.56 -7.27,12.71 -1.29,5.72 -0.36,15.78 -2.15,20.61 -1.79,4.82 2.03,17.7 2.15,25.43 0.12,7.73 7.33,21.76 14.36,23.23 3.04,0.64 13.27,7.79 19.77,13.77 6.53,6.01 30.77,16.02 33.65,16.12 1.15,0.04 -0.46,14.49 0.89,29.54 1.23,13.71 6.13,29 7.2,45.78 1.04,16.27 -0.59,26.6 0,37.45 0.5,9.11 2.59,18.39 2.59,18.39 h 9.66 c -0.23,-11.17 -0.61,-32.96 -1.31,-41.61 -0.83,-10.34 -2.62,-39.08 -2.82,-45.6 -0.2,-6.52 -0.35,-31.69 -0.37,-37.67 -0.01,-3.08 -1.58,-17.2 -1.81,-31.33 -0.25,-14.86 -1.77,-26.38 -2,-29.91 -0.23,-3.42 -0.3,-10.01 -0.54,-16.58 -0.37,-10.15 -0.11,-14.81 0.15,-17.5 0.29,-3.02 2.52,-8.04 3.22,-6.16 1.27,3.42 2.91,1.59 3.27,6.7 0.39,5.46 0.62,15.52 0.27,21.35 -0.35,5.83 -0.35,23.24 0.12,33.9 0.29,6.64 0.94,19.1 1.44,23.89 0.5,4.78 0.27,19.32 0.36,22.22 0.14,4.5 0.73,23.92 0.49,28.79 -0.24,4.87 2.99,59.67 2.77,65.05 -0.14,3.43 0.63,15.88 1.22,24.45 h 17.61 c 0.84,-5.05 1.88,-11.48 2.3,-14.91 0.75,-6.19 1.83,-19.42 -1.17,-26.82 -3,-7.4 0.64,-18.8 1.06,-26.65 0.42,-7.85 1.32,-29.56 1.18,-38.34 -0.14,-8.77 0.21,-24.59 2.34,-22.08 2.13,2.51 3.74,38.85 2.7,51.61 -1.05,12.76 1.28,38.58 0.96,47.82 -0.25,7.31 -3.69,21.46 -4.71,29.36 h 19.72 c 0,0 2.27,-5.1 3.97,-9.48 1.7,-4.38 0.12,-15.79 1.22,-22.59 1.1,-6.81 3.54,-16.16 4.39,-21.43 0.85,-5.27 -1.4,-8.52 1.09,-12.36 2.48,-3.84 3.86,-2.91 10.75,-7.86 3.66,-2.63 12.55,-3.79 16.11,-5.91 5.44,-3.25 9.08,-6.1 13.67,-8.43 4.21,-2.14 5.55,-4.44 7.31,-4.57 7.82,-0.58 14.27,-15.36 14.05,-19.07 -0.37,-6.04 3.3,-16.42 2.2,-21.48 z M 722.36,478.68 c -2.2,-0.88 -8.14,-9.35 -9.6,-11.1 -1.46,-1.75 -13.91,-5.18 -15.62,-6.06 -1.71,-0.88 -9.52,-5.78 -9.76,-7.1 -0.24,-1.32 -7.06,-3.3 -8.46,-5.1 -5.8,-7.39 2.99,-20.97 7.49,-14.09 1.87,2.86 2.2,10.79 5.37,12.48 3.17,1.69 5.92,7.81 9.09,10.65 3.17,2.84 5.55,3.41 9.95,4.29 4.39,0.88 10.5,3.9 12.45,5.87 1.95,1.97 12.94,4.16 12.94,4.16 l 0.98,13.36 c -3.17,-1.92 -12.61,-6.5 -14.81,-7.37 z m 57.35,-75.11 c -0.78,3.21 -0.84,12.27 -1,13.73 -0.15,1.46 2.43,16.65 -0.17,20.44 -2.6,3.79 0.98,13.73 0,12.8 -0.98,-0.93 -3.25,-4.91 -3.42,-6.37 -0.17,-1.46 0.16,-9.05 0,-11.39 -0.16,-2.34 -1.14,-9.35 -1.14,-11.97 0,-2.62 0,-20.73 1.3,-28.04 1.3,-7.3 0.76,-23.04 0.98,-28.33 0.25,-6.13 4.23,7.59 4.56,11.39 0.33,3.8 -0.33,24.53 -1.11,27.74 z m 77.33,54.74 c -0.56,2.34 -0.09,24.25 -0.74,26.29 -0.65,2.04 1.95,16.35 0,17.49 -1.95,1.13 -6.51,13.76 -7.74,15.22 -1.23,1.46 -8.21,8.18 -10.16,8.18 -1.95,0 -21.81,7.89 -22.13,5.84 -0.33,-2.04 0.98,-7.89 1.63,-9.05 0.65,-1.16 13.67,-5.55 19.2,-7.3 5.53,-1.75 11.07,-14.31 11.39,-18.4 0.33,-4.09 -1.82,-32.9 0,-39.34 1.63,-5.74 9.11,-1.27 8.55,1.07 z" />
  </g>
</svg>
