<?xml version="1.0" encoding="UTF-8" standalone="no"?>
<svg
   viewBox="0 0 121.25188 298.59669"
   version="1.1"
   id="svg52"
   width="121.25188"
   height="298.59668"
   xmlns="http://www.w3.org/2000/svg"
   xmlns:svg="http://www.w3.org/2000/svg">
  <defs
     id="defs2">
    <style
       id="style1">
      .cls-1 {
        fill: #c67924;
      }

      .cls-2 {
        fill: #a44819;
      }

      .cls-3 {
        fill: #e2cba2;
      }

      .cls-4 {
        fill: none;
      }

      .cls-5 {
        clip-path: url(#clippath-1);
      }

      .cls-6 {
        fill: #f26c37;
      }

      .cls-7 {
        fill: #588372;
      }

      .cls-8 {
        fill: #d0d2c1;
      }

      .cls-9 {
        fill: #ce8a39;
      }

      .cls-10 {
        fill: #599360;
      }

      .cls-11 {
        fill: #6b2b2c;
      }

      .cls-12 {
        fill: #45657c;
      }

      .cls-13 {
        clip-path: url(#clippath);
      }
    </style>
  </defs>
  <g
     id="Camada_5"
     transform="translate(-414.26667,-338.57333)">
    <g
       id="cajuina">
      <g
         id="g41">
        <path
           class="cls-6"
           d="m 497.65,355.75 c 0,0 -12.72,-0.57 -15.54,0 -2.82,0.57 -10.3,-1.29 -12.88,0 -2.58,1.29 -17.3,0 -17.3,0 l 6.04,-16.55 c 0,0 6.23,-1.41 9.67,0 3.44,1.41 10.79,0.63 15.33,0 4.54,-0.63 8.65,0 8.65,0 l 6.04,16.55 z"
           id="path37" />
        <path
           class="cls-6"
           d="m 443.33,567.13 c -5.97,0 -13.16,-0.57 -14.36,-0.67 l -0.6,-0.05 -0.06,-0.6 c -0.06,-0.62 -1.42,-15.34 0.03,-20.3 1.33,-4.58 0.67,-29.62 -0.01,-32.71 -0.65,-2.94 -0.04,-15.42 -0.02,-15.95 l 0.03,-0.65 0.65,-0.03 c 3.09,-0.16 30.33,-1.52 33.93,0.06 3.29,1.44 22.65,0.67 32.28,-0.06 2.33,-0.18 4,-0.34 5.22,-0.46 3.61,-0.35 3.9,-0.38 7.64,0.47 4.7,1.07 12.31,0 12.39,-0.01 l 0.89,-0.13 -0.07,0.9 c 0,0.11 -0.87,10.59 -0.01,14.43 1.02,4.59 1.02,9.81 0,14.3 -0.53,2.35 -0.31,6.88 -0.06,11.68 0.25,4.92 0.53,10.49 0.08,15.09 -0.86,8.85 -0.02,13.11 -0.01,13.16 l 0.17,0.81 -0.83,0.05 c -0.77,0.05 -19.03,1.16 -23.96,-0.02 -2.38,-0.57 -9.77,-0.25 -16.29,0.03 -8.21,0.35 -13.31,0.53 -14.87,-0.06 -2.84,-1.06 -11.1,-1.47 -14.56,-0.01 -1.3,0.55 -4.26,0.73 -7.6,0.73 z m -13.64,-2.06 c 5.39,0.42 18,1.13 20.68,0 3.8,-1.6 12.52,-1.18 15.63,-0.01 1.39,0.52 8.25,0.23 14.3,-0.03 6.94,-0.3 14.11,-0.61 16.69,0 4.16,0.99 19.13,0.23 22.75,0.03 -0.22,-1.65 -0.56,-5.81 0.12,-12.77 0.44,-4.49 0.16,-10.01 -0.08,-14.88 -0.26,-5.11 -0.48,-9.53 0.1,-12.07 0.98,-4.29 0.98,-9.27 0,-13.67 -0.76,-3.41 -0.28,-11.31 -0.08,-13.98 -2.21,0.26 -8,0.79 -12.02,-0.12 -3.51,-0.8 -3.65,-0.79 -7.19,-0.44 -1.22,0.12 -2.9,0.28 -5.25,0.46 -5.91,0.45 -28.83,1.75 -32.97,-0.06 -2.45,-1.07 -20.6,-0.58 -32.63,0.03 -0.12,2.64 -0.51,12.52 0.01,14.92 0.64,2.92 1.46,28.37 -0.01,33.43 -1.21,4.15 -0.27,16.31 -0.03,19.16 z"
           id="path38" />
        <path
           class="cls-6"
           d="m 506.28,440.36 v 0 c -2.6,0 -4.78,-1.98 -5.03,-4.57 0,0 -3.67,-8.4 -1.54,-15.77 2.13,-7.37 -3.93,-32.52 -3.32,-40.25 0.61,-7.73 -2.61,-20.53 -2.61,-20.53 h -37.99 c 0,0 -2.74,14.49 -2.1,21.56 0.64,7.07 -4.02,17.86 -2.89,29.63 1.13,11.77 -2.47,25.36 -2.47,25.36 -0.25,2.59 -2.43,4.57 -5.03,4.57 v 0 c -15.69,0 -28.42,12.72 -28.42,28.42 0,0 -1.38,15.73 0,29.43 1.38,13.7 0.69,24.33 -0.13,43.93 -0.57,13.48 1.78,36.85 0.13,53.95 -1.32,13.73 0,23.03 0,23.03 0,3.09 1.87,5.87 4.74,7.01 5.16,2.06 22.19,5.19 25.48,7.72 3.29,2.53 18.97,3.32 29.69,3.32 12.21,0 25.67,-3.26 33.29,-4.14 7.62,-0.88 17.28,-5.06 21.88,-6.89 2.87,-1.14 4.74,-3.92 4.74,-7.01 0,0 -0.65,-14.94 0,-25.24 0.65,-10.3 1.46,-38.75 0,-49.05 -1.46,-10.3 -1.23,-46.35 0,-50.52 1.23,-4.17 0,-25.54 0,-25.54 0,-15.69 -12.72,-28.42 -28.42,-28.42 z m -17.58,-68.61 2.7,67.2 -3.68,1.23 -1.72,-68.42 h 2.7 z M 477.48,629.2 c 0,-2.94 0.74,-3.92 0.74,-3.92 0,0 17.9,0 24.03,-1.96 6.13,-1.96 17.53,-4.78 17.53,-4.78 l 0.81,2.82 c -5.84,2.7 -32.81,7.85 -43.11,7.85 z m 47.88,-74.62 c -0.98,10.05 0,14.78 0,14.78 0,0 -20.85,1.29 -26.24,0 -5.4,-1.29 -30.9,1.29 -34.33,0 -3.43,-1.29 -12.75,-1.66 -16.68,0 -3.92,1.66 -23.89,0 -23.89,0 0,0 -1.57,-16.74 0,-22.13 1.57,-5.4 0.7,-33.35 0,-36.54 -0.7,-3.19 0,-17.41 0,-17.41 0,0 33.21,-1.72 37.13,0 3.92,1.72 26,0.76 36.05,0 10.05,-0.76 8.58,-1.23 13.98,0 5.4,1.23 13.98,0 13.98,0 0,0 -0.98,11.77 0,16.19 0.98,4.41 1.23,10.05 0,15.45 -1.23,5.4 0.98,19.62 0,29.67 z"
           id="path39" />
        <path
           class="cls-6"
           d="m 475.13,520.99 c -5.07,2.84 -10.26,-4.99 -10.26,-8.65 0,-3.66 4.58,-12.76 11.38,-9.38 6.8,3.37 -1.26,5.83 -0.82,8.71 0.44,2.88 3.51,7.2 -0.29,9.33 z"
           id="path40" />
        <path
           class="cls-6"
           d="m 485.28,513.95 c -8.94,0 -4.31,8.09 -12.13,9.09 -5.72,0.73 -8.65,-9.9 -17.78,-5.5 -7.07,3.41 -5,16.68 0.88,24.19 3.81,4.88 6.78,11.9 8.61,15.4 1.6,3.05 4.94,4.64 9.53,1.65 2.53,-1.65 1.09,-2.74 5.5,-0.22 2.57,1.47 6.53,1.19 8.32,-1.58 2.29,-3.53 2.24,-12.5 5.43,-19.89 3.81,-8.85 4.11,-23.15 -8.36,-23.15 z m 5.28,14.08 c -2.49,-1.32 -0.23,-3.23 -2.39,-4.47 -2.16,-1.25 -2.45,-4.47 -2.45,-4.47 1.76,0.73 5.43,4.4 4.84,8.94 z"
           id="path41" />
      </g>
    </g>
  </g>
</svg>
