<?xml version="1.0" encoding="UTF-8" standalone="no"?>
<svg
   viewBox="0 0 276.69 312.44001"
   version="1.1"
   id="svg52"
   width="276.69"
   height="312.44"
   xmlns="http://www.w3.org/2000/svg"
   xmlns:svg="http://www.w3.org/2000/svg">
  <defs
     id="defs2">
    <style
       id="style1">
      .cls-1 {
        fill: #c67924;
      }

      .cls-2 {
        fill: #a44819;
      }

      .cls-3 {
        fill: #e2cba2;
      }

      .cls-4 {
        fill: none;
      }

      .cls-5 {
        clip-path: url(#clippath-1);
      }

      .cls-6 {
        fill: #f26c37;
      }

      .cls-7 {
        fill: #588372;
      }

      .cls-8 {
        fill: #d0d2c1;
      }

      .cls-9 {
        fill: #ce8a39;
      }

      .cls-10 {
        fill: #599360;
      }

      .cls-11 {
        fill: #6b2b2c;
      }

      .cls-12 {
        fill: #45657c;
      }

      .cls-13 {
        clip-path: url(#clippath);
      }
    </style>
  </defs>
  <g
     id="Camada_4"
     transform="translate(0.02,-315.39)">
    <g
       id="carnauba">
      <g
         id="g36">
        <path
           class="cls-10"
           d="m 126.56,524.92 c 0.42,0 0.81,0.02 1.12,0.07 1.33,0.21 3.04,0.6 4.86,1.01 2.22,0.5 4.51,1.01 6.29,1.26 2.17,0.3 4.9,0.18 7.3,0.08 1.12,-0.05 2.18,-0.09 3.1,-0.09 0.92,0 2.66,-0.19 4.66,-0.4 1.55,-0.17 3.25,-0.35 4.97,-0.49 0,-0.1 -0.02,-0.2 -0.03,-0.3 -0.56,-5.88 -0.6,-11.12 -0.66,-16.36 -2.38,0.14 -4.83,0.4 -6.86,0.63 -2.16,0.23 -3.87,0.42 -4.95,0.42 -0.87,0 -1.9,0.04 -2.99,0.09 -1.28,0.05 -2.66,0.11 -4.01,0.11 -1.35,0 -2.58,-0.05 -3.76,-0.21 -1.9,-0.26 -4.24,-0.79 -6.52,-1.3 -0.12,-0.03 -0.24,-0.05 -0.36,-0.08 0,1.65 -0.06,3.29 -0.2,4.84 -0.29,3.01 -1.09,6.39 -1.97,10.74 z"
           id="path30" />
        <path
           class="cls-10"
           d="m 135.97,508.08 c 2.17,0.3 4.9,0.18 7.3,0.08 1.12,-0.05 2.18,-0.09 3.1,-0.09 0.92,0 2.66,-0.19 4.66,-0.4 2.2,-0.24 4.69,-0.5 7.12,-0.65 -0.06,-3.97 -0.18,-7.99 -0.59,-12.34 -0.16,-1.72 -0.32,-3.66 -0.46,-5.74 -2.03,0.15 -4.05,0.37 -5.78,0.55 -2.16,0.23 -3.87,0.42 -4.95,0.42 -0.87,0 -1.9,0.04 -2.99,0.09 -1.28,0.05 -2.66,0.11 -4.01,0.11 -1.35,0 -2.58,-0.05 -3.76,-0.21 -1.74,-0.24 -3.87,-0.7 -5.96,-1.17 -0.35,2.42 -0.68,5.08 -0.96,8.06 -0.24,2.54 -0.05,6.1 0.02,9.81 0.32,0.07 0.64,0.14 0.97,0.22 2.22,0.5 4.51,1.01 6.29,1.26 z"
           id="path31" />
        <path
           class="cls-10"
           d="m 124.15,540.78 c -0.24,2.58 -0.42,5.12 -0.54,7.57 1.44,-0.15 2.6,-0.26 3.41,-0.26 0.87,0 1.9,-0.04 2.99,-0.09 2.52,-0.11 5.37,-0.23 7.77,0.1 1.9,0.26 4.25,0.79 6.52,1.3 1.78,0.4 3.45,0.78 4.69,0.97 2.1,0.33 8.88,-0.91 12.61,-1.81 -0.91,-6.89 -1.84,-13.78 -2.46,-19.57 -1.75,0.14 -3.46,0.33 -4.95,0.49 -2.16,0.23 -3.87,0.42 -4.95,0.42 -0.87,0 -1.9,0.04 -2.99,0.09 -1.28,0.05 -2.66,0.11 -4.01,0.11 -1.35,0 -2.58,-0.05 -3.76,-0.21 -1.9,-0.26 -4.25,-0.79 -6.52,-1.3 -1.78,-0.4 -3.45,-0.78 -4.69,-0.97 -0.31,-0.05 -0.73,-0.06 -1.23,-0.05 -0.69,3.66 -1.39,7.96 -1.89,13.21 z"
           id="path32" />
        <path
           class="cls-10"
           d="m 122.27,574.31 c 0.94,-0.09 1.84,-0.19 2.68,-0.28 2.16,-0.23 3.87,-0.42 4.95,-0.42 0.87,0 1.9,-0.04 2.99,-0.09 2.52,-0.11 5.37,-0.23 7.77,0.1 1.9,0.26 4.24,0.79 6.52,1.3 1.78,0.4 3.46,0.78 4.7,0.97 2.08,0.33 8.73,-0.88 12.48,-1.78 -0.13,-2.19 -0.31,-4.59 -0.56,-7.24 -0.45,-4.74 -1.12,-10.15 -1.84,-15.66 -3.23,0.75 -8.93,1.87 -12.13,1.87 -0.48,0 -0.9,-0.02 -1.25,-0.08 -1.33,-0.21 -3.04,-0.6 -4.86,-1.01 -2.22,-0.5 -4.51,-1.01 -6.29,-1.26 -2.17,-0.3 -4.9,-0.18 -7.3,-0.08 -1.12,0.05 -2.18,0.09 -3.1,0.09 -0.75,0 -2.02,0.12 -3.53,0.28 -0.33,9.08 -0.03,16.45 -0.25,18.76 -0.09,1 -0.48,2.59 -0.97,4.51 z"
           id="path33" />
        <path
           class="cls-10"
           d="m 119.16,588.85 c -0.29,3.11 -0.23,7.72 -0.11,12.33 2.41,-0.14 4.89,-0.41 6.96,-0.63 2.16,-0.23 3.87,-0.42 4.95,-0.42 0.87,0 1.9,-0.04 2.99,-0.09 2.52,-0.11 5.37,-0.23 7.77,0.1 1.9,0.26 4.24,0.79 6.52,1.3 1.78,0.4 3.46,0.78 4.7,0.97 2.25,0.36 9.91,-1.1 13.38,-2 -0.51,-2.83 -1,-6.05 -1.35,-9.75 -0.28,-2.97 -0.17,-7.31 -0.47,-13.85 -3.28,0.75 -8.7,1.8 -11.79,1.8 -0.48,0 -0.9,-0.03 -1.25,-0.08 -1.33,-0.21 -3.05,-0.6 -4.87,-1.01 -2.22,-0.5 -4.51,-1.01 -6.29,-1.26 -2.17,-0.3 -4.9,-0.18 -7.3,-0.08 -1.12,0.05 -2.18,0.09 -3.1,0.09 -0.92,0 -2.66,0.19 -4.66,0.4 -1.16,0.13 -2.41,0.26 -3.68,0.38 -0.96,3.68 -2.03,8.01 -2.39,11.79 z"
           id="path34" />
        <path
           class="cls-10"
           d="m 168.49,614.04 c 0.11,-2.61 -0.74,-6.13 -1.69,-11.01 -2.94,0.73 -9.51,2.09 -13.04,2.09 -0.48,0 -0.9,-0.03 -1.25,-0.08 -1.33,-0.21 -3.05,-0.6 -4.87,-1.01 -2.22,-0.5 -4.51,-1.01 -6.29,-1.26 -2.17,-0.3 -4.9,-0.18 -7.3,-0.08 -1.12,0.05 -2.18,0.09 -3.1,0.09 -0.92,0 -2.66,0.19 -4.66,0.4 -2.21,0.24 -4.73,0.51 -7.17,0.65 0.14,4.83 0.27,9.34 0.04,11.76 -0.49,5.15 -2.19,8.77 -2.19,12.24 25.8,-10.14 28.12,-10.63 52.6,0 1.13,-3.93 -1.27,-9.38 -1.08,-13.81 z"
           id="path35" />
        <path
           class="cls-10"
           d="m 271.8,466.07 -13.21,-1.99 -8.18,-3.79 6.75,-2.18 -1.87,-0.31 14.28,0.48 -20.68,-4.52 27.78,-5.8 -22.56,-1.72 18.03,-16.17 -22.04,8.33 10.59,-19.09 -11.87,10.76 -2.07,-3.4 c 0.94,-3.83 2.05,-8.33 2.66,-10.84 l 12.95,2.86 -19.62,-13.04 21.69,-2.54 -20.6,-4.42 c 0,0 17.16,-6.89 18.59,-7.47 1.43,-0.57 -25.19,3.25 -25.19,3.25 l 19.84,-11.06 -13,3.08 -9,-0.47 5.45,-4.54 -1.85,0.41 13.43,-4.88 -20.87,3.51 23.61,-15.73 -21.57,6.81 10.71,-21.72 -17.35,15.94 2.71,-21.66 -9.21,18.95 c 0,0 -2.6,-18.31 -2.81,-19.84 -0.1,-0.71 -0.72,4.67 -1.36,10.64 l -5.4,0.36 -2.1,-7.66 -0.07,7.81 -13.68,0.9 16.93,-16.38 -22.31,9.41 8.06,-21.14 -17.09,22.65 4.73,-20.63 -5.66,13.12 0.52,-1.82 -4.85,5.17 0.06,-9.01 3.83,-12.79 -12.2,19.16 c 0,0 5.38,-26.35 4.73,-24.96 -0.66,1.39 -8.54,18.12 -8.54,18.12 l -3.21,-20.83 -3.81,21.5 -11.87,-20.35 3.82,23.91 -9.62,-6.66 2.74,-3.96 -3.89,3.17 -7.83,-5.42 5.78,7.09 -6.68,5.43 -0.08,-0.04 0.07,0.05 -4.91,3.99 1.96,-24.14 -10.26,21.21 -5.46,-21.14 -1.59,21.01 c 0,0 -9.16,-16.07 -9.92,-17.41 -0.76,-1.34 6.64,24.52 6.64,24.52 l -13.65,-18.16 4.81,12.46 0.76,8.98 -5.24,-4.78 0.66,1.78 -6.66,-12.64 6.31,20.2 -18.79,-21.26 9.67,20.45 -22.97,-7.66 5.71,4.73 -2.95,10.48 -6.44,0.08 5.88,1.92 -2.38,8.44 -12.29,-20.87 3.81,23.25 -16.63,-14.15 10.79,18.1 c 0,0 -16.74,-7.87 -18.13,-8.53 -1.39,-0.66 19.54,16.23 19.54,16.23 l -21.61,-7 11.1,7.42 5.79,6.91 -7.04,-0.9 1.56,1.08 -12.72,-6.51 16.79,12.89 -27.6,-6.57 19.68,11.16 -23.2,6.95 23.49,1.85 -2.43,1.75 -0.02,-0.04 v 0.05 c 0,0 -7,5.06 -7,5.06 l -5.43,-6.62 3.45,8.05 -6.28,4.53 7.27,-2.22 3.36,7.82 c -0.5,0.61 -0.96,1.18 -1.36,1.68 l -20.19,-7.56 17.59,15.68 -21.83,-0.54 19.77,7.28 c 0,0 -17.96,4.41 -19.46,4.77 -1.5,0.36 25.4,0.33 25.4,0.33 l -21.2,8.15 13.3,-1.21 8.84,1.73 -6.03,3.73 1.89,-0.14 -13.98,2.94 21.16,-0.54 -25.59,12.25 22.32,-3.7 -13.66,20 19.42,-13.34 -5.73,21.07 10.37,-15.36 1.42,0.77 c 0,3.91 0,10.86 0,14.64 l -6.11,1.95 6.11,0.37 c 0,0.09 0,0.16 0,0.21 0,0.13 0.05,0.05 0.14,-0.2 l 17.27,1.06 -17.49,13.07 20.04,-6.51 c 0,0 -11.39,14.57 -12.34,15.79 C 44.89,532.45 66,515.78 66,515.78 l -11.62,19.52 9.7,-9.18 8.02,-4.11 -2.44,6.66 1.39,-1.28 -9.17,10.96 16.29,-13.51 -12.54,25.46 15.25,-16.71 1.63,24.16 7.01,-22.49 8.52,20.1 -1.54,-21.01 c 0,0 11.43,14.54 12.38,15.75 0.95,1.21 -10.19,-23.26 -10.19,-23.26 l 16.18,15.94 -13.38,-23.53 10.59,7.11 -7.73,-14.08 9.79,3.14 -15.68,-13.17 4.82,-0.64 -10.15,-4.88 c 10.17,-8.1 19.72,-17.64 29.59,-28.15 l 3.59,-2.67 -5.55,15.16 12.12,-16.29 c 0,0.21 0.02,0.41 0.02,0.62 l -1.13,1.34 1.14,-0.98 c 0.04,1.62 0.01,3.22 -0.12,4.66 0,0.04 -0.01,0.09 -0.01,0.14 1.16,0.24 2.26,0.45 3.22,0.58 0.12,0.02 0.26,0.02 0.39,0.03 l 0.53,2.72 c -0.43,-0.03 -0.87,-0.06 -1.28,-0.12 -0.97,-0.13 -2.07,-0.34 -3.21,-0.57 -0.55,3.41 -1.47,7.47 -2.35,12.96 2.1,0.47 4.24,0.95 5.92,1.18 2.17,0.3 4.9,0.18 7.3,0.08 1.12,-0.05 2.18,-0.09 3.1,-0.09 0.92,0 2.66,-0.19 4.66,-0.4 1.83,-0.2 3.86,-0.42 5.89,-0.57 -0.27,-4.28 -0.5,-8.96 -0.73,-13.47 -0.91,0.08 -1.81,0.16 -2.68,0.25 l -0.53,-2.62 c 1,-0.1 2.03,-0.21 3.07,-0.29 -0.08,-1.52 -0.15,-3 -0.23,-4.42 4.12,3.95 9.54,9.16 10.24,9.84 0.53,0.51 -2.36,-4.23 -5.61,-9.47 8.6,10.2 19.63,21.7 31.23,31.25 l -9.24,1.49 8.29,1.85 -15.85,5.63 15.06,-0.28 -17.89,7.91 16.07,-4.21 -22.45,11.91 18.92,-4.87 -20.15,15.39 18.86,-9.59 -17.83,22.07 18.55,-12.95 -3.72,23.93 11.79,-20.4 3.89,21.48 3.12,-20.84 c 0,0 7.95,16.7 8.62,18.09 0.67,1.39 -4.82,-24.94 -4.82,-24.94 l 12.28,19.11 -7.21,-23.72 7.16,16.72 -2.21,-12.97 3.15,3.33 -1.58,-5.49 11.02,17.24 -7.99,-19.6 20.51,19.6 -11.36,-19.56 23.54,5.7 -19.35,-13.45 21.73,-2.09 -20.51,-4.85 c 0,0 7.19,-2.72 12.69,-4.79 l 2.49,5.2 -0.96,-5.78 c 2.31,-0.87 4.1,-1.55 4.53,-1.71 0.43,-0.16 -1.64,0.02 -4.75,0.34 l -1.3,-7.8 0.87,-0.46 -0.91,0.2 -1.18,-7.11 20,13.65 -13.35,-19.41 21.07,5.72 -17.47,-11.78 h 20.04 c 1.54,0 -24.59,-6.37 -24.59,-6.37 l 22.53,-2.87 z m -23,-50.39 c -0.97,1.74 -2.49,4.56 -4.1,7.59 l -4.52,-7.43 0.23,-2.01 z m -20.77,76.3 2.3,-11.8 3.46,16.4 -6.95,1.49 1.03,-5.3 1.28,-1.02 -1.12,0.22 z M 36,436.57 l -0.07,-0.08 0.04,-0.03 z m -0.67,-2.45 -0.58,0.93 -3.65,-4.44 c 0.9,-0.67 1.81,-1.35 2.71,-2.04 l 1.51,5.55 z m 0.38,-6.98 c 1.89,-1.42 3.63,-2.75 4.96,-3.75 l 0.09,1.95 -3.33,5.38 z m 5.36,4.65 0.35,7.22 -2.52,-5.23 2.17,-1.98 z m 12.81,54.77 -3.28,-1.61 0.88,-5.82 z m -8.27,4.91 -2.87,-0.63 c 1.04,-4.18 1.84,-7.47 1.84,-7.47 z m 10.33,-43.18 -2.3,-16.67 -2.78,14.8 -2.85,-13.22 10.58,-9.39 -0.89,10.24 9.36,-18.21 1.7,4.55 1.85,-8.09 c 12.77,7.14 24.75,13.31 36.72,18.56 l 12.14,8.04 -0.59,0.46 -23.64,2.27 21.16,5.62 c -15.98,4.64 -36.11,6.93 -57.54,6.43 l 0.58,-13.13 -3.49,7.74 z m 20.42,-73.87 -2.43,3.32 -4.03,1.72 1.15,-4.86 c 1.88,-0.06 3.7,-0.12 5.32,-0.18 z m -4.35,-3.93 0.55,-2.31 3.52,1.15 c 0,0 -1.69,0.48 -4.06,1.16 z m -3.44,14.56 0.69,-2.94 1.61,-0.21 -2.31,3.15 z m 6.49,-3.68 3.85,-0.49 -8.61,11.86 z m -9.17,-1.62 -0.04,-4.99 c 0.74,-0.02 1.49,-0.04 2.26,-0.07 l -2.22,5.05 z m 98.97,58.42 0.61,-0.61 -1.05,0.53 -0.33,-0.06 -0.58,-0.37 19.77,-10.62 -6.99,1.23 c 0.87,-0.57 1.74,-1.15 2.61,-1.73 6.62,-4.44 16.71,-11.64 26.29,-20.15 l 0.64,6.58 2.37,-8.15 4.62,16.18 0.67,-15.05 6.78,18.35 -3.19,-16.3 10.21,22.57 -4.42,10.3 -3.55,-9.65 -0.72,20.46 -3.47,-3.4 1.49,6.82 c -18.13,-0.08 -36.24,-3.69 -50.71,-8.96 l 21.66,-3.7 -22.7,-4.27 z m 43.02,-65.3 -3.01,-6.17 c 1.17,-0.05 2.34,-0.11 3.45,-0.17 l -0.06,6.47 -0.39,-0.13 z m 6,-6.65 c 0.3,-0.02 0.59,-0.04 0.85,-0.06 -0.14,1.44 -0.23,2.33 -0.23,2.33 z m 23.95,70.13 1.58,-13.73 3.8,3.48 c -2.78,5.27 -5.38,10.25 -5.38,10.25 z m 2.57,-22.52 -0.58,1.41 -1.08,-1.78 1.67,0.37 z m -2.9,7.05 -2.33,5.67 -5.59,-12.94 7.92,7.26 z m -2.92,7.09 -4.46,10.85 -0.92,-12.72 -1.81,4.22 -3.51,-18.36 10.71,16.01 z m -18.61,-73.88 c -0.45,4.18 -0.89,8.6 -1.18,11.43 -0.36,-0.07 -0.75,-0.15 -1.17,-0.24 l -2.51,-9.17 z m -7.57,3.15 -0.06,6.98 c -1.75,-0.35 -3.55,-0.72 -5.2,-1.05 l -0.48,-0.98 -0.02,0.88 c -3.14,-0.64 -5.57,-1.13 -5.57,-1.13 l 11.32,-4.7 z m -5.84,9.56 -0.1,4.23 -11.11,-3.76 c 0,0 5.39,-0.21 11.2,-0.48 z m -0.17,7.23 -0.1,4.22 -3.99,-4.42 4.09,0.21 z m -14.28,12.18 -7.21,-7.32 16.06,0.57 -11.12,-6.26 10.69,0.54 5.83,16.14 -4.49,-1.86 6.45,9.49 0.24,2.5 c -13.03,12.12 -28.93,22.87 -40.3,29.68 l 0.29,-0.34 -0.67,0.57 c -0.45,0.27 -0.89,0.53 -1.33,0.79 l -1.16,0.21 c 0,0 13.95,-13.13 15.11,-14.22 0.62,-0.59 -6.11,3.15 -12.49,6.74 l 2.94,-3.95 -8.56,7.13 c -2.99,1.69 -5.14,2.92 -5.14,2.92 l 14.88,-18.07 -9.35,6.49 4.38,-8.58 -9.2,11.92 -1.66,1.15 c 2.57,-12.98 6.48,-30.28 11.51,-45.15 l 7.08,5.44 -1.59,-4.59 18.82,8.07 z m -39.6,-30.85 -7.22,-1.83 1.2,-0.76 -1.8,0.61 -8.06,-2.04 4.87,-4.32 11,8.33 z m -9.32,-9.82 2.74,-2.43 5.27,6.47 -8.01,-4.03 z m -2.73,-9.15 5.31,6.52 -3.55,2.14 -5.76,-2.9 4,-5.77 z m -4.47,6.46 4.39,3.33 -11.53,6.97 z m 0.06,9.02 5.14,2.7 -13.2,4.45 z m -13.01,23.66 15.4,-6.78 -15,1.38 17.26,-9.21 -15.72,5.38 17.54,-11.03 13.54,7.12 -16.09,-4.15 17.92,7.84 -15.06,-0.22 15.88,5.57 -8.28,1.89 12.56,1.97 c -3.89,11.4 -7.09,24.09 -9.55,35.29 l -4.57,8.06 -7.75,-23.41 -1.53,23.85 -6.81,-8.76 c -4.74,-8.94 -9.9,-19.41 -14.57,-30.41 l 13.23,-3.14 z m -30.89,4.16 -10.6,7.1 15.96,-1.81 -6.62,7.86 18.13,-9.5 -1.23,4.7 5.96,-5.37 c 5.94,13.93 12.63,26.93 18.26,37.12 l 0.64,1.89 c 0,0 -0.67,-0.5 -1.73,-1.3 l -9.34,-7.86 1.15,1.7 c -3.27,-2.46 -6.21,-4.67 -6.74,-5.07 -1.09,-0.82 11.57,14.68 15.29,19.22 l -0.6,0.32 -0.22,-0.12 -0.23,-0.88 -0.23,0.62 -2.62,-1.5 c -6.63,-4.6 -15.3,-10.57 -14.65,-9.82 0.26,0.3 1.23,1.4 2.55,2.89 l -3.6,-2.06 12.63,12.84 C 104.66,424.57 89.41,416.93 72.74,407.6 l 8.85,-10 -7.58,3.82 8.69,-14.4 -11.47,9.76 8.05,-15.93 8.86,-1.14 z m -10.99,-3.33 0.84,-2 c 2.51,-0.09 4.2,-0.15 4.2,-0.15 z m -11.46,-23.93 12.19,10.09 -4,0.05 0.52,-2.2 -0.97,2.2 -7.66,0.09 -0.07,-10.23 z m 5.47,15.3 -1.5,3.43 c -1.23,0.35 -2.53,0.72 -3.83,1.09 l -0.05,-6.28 z m -20.02,54.85 -3.49,9.05 -0.93,-4.33 0.31,5.95 -0.47,1.23 0.51,-0.46 0.51,9.87 -4.16,-14.26 z m -8.02,-1.06 -1.4,2.26 -0.28,-0.98 c 1.04,-0.79 1.68,-1.28 1.68,-1.28 z m -7.81,-0.47 c 0,0 -0.62,0.77 -1.59,1.96 l -0.62,-1.29 z m -9.64,2.95 6.36,-1.94 0.62,2.28 c -0.98,1.22 -2.15,2.65 -3.33,4.11 l -3.65,-4.44 z m -0.3,10.85 c 0.31,-0.22 0.64,-0.46 0.98,-0.72 l 0.56,1.29 -1.54,-0.58 z m 11.7,54.74 1.13,-1.68 c 0,0 0,0.74 0,1.93 z m 5.13,3.37 3.85,2.1 0.96,7.55 -7.92,2.52 c 0.81,-2.99 2.03,-7.81 3.11,-12.17 z m 5.77,9.35 0.87,-5.73 6.32,3.44 -7.18,2.29 z m 1.51,-9.99 0.96,-6.33 4.27,3.17 0.68,2.12 0.24,-1.43 7.37,5.46 -13.52,-2.98 z m 6.52,-4.71 1.18,-7.09 11.58,13.35 z m 34.01,4.88 -6.14,-8.56 2.04,8.24 -12.12,-11.67 6.97,13.35 -15.07,-12.48 10.94,12.5 -19.38,-13.84 0.77,-4.61 5.75,8.52 -4.17,-20.04 4.18,2.47 -3.66,-7.47 c 1.66,0.03 3.32,0.05 4.96,0.05 15.8,0 30.61,-1.51 43.54,-4.35 l -9.29,5.31 16.46,-4.12 -2.99,3.13 6.01,-3.89 7.5,-1.88 -1.49,2.19 -13.93,10.74 10.25,-5.31 -4.4,6.48 c -8.91,9.41 -17.59,17.94 -26.74,25.24 z m 53.37,-18.69 c -0.51,0.02 -1.05,0.04 -1.58,0.06 l 0.52,-2.69 c 0.32,-0.01 0.64,-0.02 0.95,-0.04 1.12,-0.05 2.18,-0.09 3.1,-0.09 0.53,0 1.32,-0.06 2.27,-0.15 l 1.5,2.52 c -1.61,0.17 -2.9,0.29 -3.77,0.29 -0.87,0 -1.9,0.04 -2.99,0.09 z m 70.01,21.11 5.94,-8.39 -16.79,10.69 -0.37,-0.3 0.73,-4.18 -3.11,3.32 -1.2,0.19 c -13.18,-10.25 -25.85,-23.52 -35.19,-34.75 l 8.03,5.97 -11.31,-14.71 21.55,7.53 -9.43,-6.62 c 13.59,4.03 29.35,6.61 45.08,6.61 0,0 0.01,0 0.02,0 l -4.14,14.13 5.24,-6.68 -1.73,16.73 6.22,-13.71 -0.55,19.56 3.11,-16.32 0.79,18.36 z m 12.96,-0.92 0.18,4.15 -7.35,1.58 z m -0.77,10.69 8.91,-4.73 0.75,3.57 c -5.19,0.61 -9.66,1.16 -9.66,1.16 z m 18.37,-2.16 c -2.61,0.29 -5.61,0.63 -8.44,0.97 l -0.1,-4.02 5.65,-2.99 2.9,6.05 z m -8.63,-6.27 -0.32,-12.41 5.42,11.31 z m 10.89,-67.38 1.95,1.79 -3.08,2.79 c 0,0 0.48,-1.93 1.13,-4.58 z"
           id="path36" />
      </g>
    </g>
  </g>
</svg>
