<?xml version="1.0" encoding="UTF-8" standalone="no"?>
<svg
   viewBox="0 0 194.74001 211.52445"
   version="1.1"
   id="svg52"
   width="194.74001"
   height="211.52444"
   xmlns="http://www.w3.org/2000/svg"
   xmlns:svg="http://www.w3.org/2000/svg">
  <defs
     id="defs2">
    <style
       id="style1">
      .cls-1 {
        fill: #c67924;
      }

      .cls-2 {
        fill: #a44819;
      }

      .cls-3 {
        fill: #e2cba2;
      }

      .cls-4 {
        fill: none;
      }

      .cls-5 {
        clip-path: url(#clippath-1);
      }

      .cls-6 {
        fill: #f26c37;
      }

      .cls-7 {
        fill: #588372;
      }

      .cls-8 {
        fill: #d0d2c1;
      }

      .cls-9 {
        fill: #ce8a39;
      }

      .cls-10 {
        fill: #599360;
      }

      .cls-11 {
        fill: #6b2b2c;
      }

      .cls-12 {
        fill: #45657c;
      }

      .cls-13 {
        clip-path: url(#clippath);
      }
    </style>
  </defs>
  <g
     id="Camada_3"
     transform="translate(-678.55,-23.405556)">
    <g
       id="computador">
      <path
         class="cls-11"
         d="M 848.64,35.89 H 703.45 l 14.67,-12.12 c 0,0 13.23,-0.82 16.35,0 3.12,0.82 23.17,0.37 26.79,0 3.62,-0.37 34.18,0 34.18,0 h 38.54 l 14.67,12.12 z"
         id="path24" />
      <path
         class="cls-11"
         d="m 839.27,171.66 c 0,0 -27.89,1.39 -31.51,0 -3.62,-1.39 -41.25,-0.62 -45.69,0 -4.44,0.62 -22.35,0.73 -25.14,0 -2.79,-0.73 -23.87,0 -23.87,0 l -4.48,-11.34 c 0,0 20.79,0.89 27.53,0 6.74,-0.89 34.1,-1.24 40.06,0 5.96,1.24 49.51,0.81 54.27,0 4.76,-0.81 13.31,0 13.31,0 z"
         id="path25" />
      <path
         class="cls-11"
         d="M 825.96,187.48 H 725.88 c 0,0 1.89,-3.6 3.18,-4.06 1.29,-0.46 4.44,-4.23 4.76,-5.77 0.08,-0.38 1.91,-2.75 1.91,-2.75 h 13.23 c 0,0 17.13,0.16 19.35,0 2.22,-0.16 29.7,-0.35 31.31,0 1.61,0.35 16.47,0 16.47,0 0,0 2.4,1.72 2.58,3.29 0.18,1.57 3.28,5.1 4.62,5.89 1.34,0.79 2.66,3.39 2.66,3.39 z"
         id="path26" />
      <path
         class="cls-11"
         d="m 854.1,191.54 c 0,0 -12.49,-1.08 -15.7,0 -3.21,1.08 -48.68,0.76 -51.4,0 -2.72,-0.76 -47.7,0.65 -49.67,0 -1.97,-0.65 -25.76,-1.33 -29.33,0 -3.57,1.33 -10.27,0 -10.27,0 0,0 -2.78,9.44 -4.45,10.07 -1.67,0.63 -9.41,19.31 -10.16,22.98 -0.75,3.67 -4.57,10.34 -4.57,10.34 h 194.74 c 0,0 -2.48,-4.17 -4.28,-9.68 -1.8,-5.51 -7.6,-15.29 -9.01,-20.38 -1.41,-5.09 -5.89,-13.32 -5.89,-13.32 z m -19.67,36.62 c 0,0 -39.16,0.37 -41.99,-0.36 -2.84,-0.71 -39.21,-0.09 -41.33,0.36 -1.62,0.33 -16.72,-1.08 -21.4,-0.58 -4.68,0.5 -32.01,0.58 -32.01,0.58 l 1.31,-3.13 c 0,0 18.36,0.71 21.94,-0.1 3.58,-0.8 35.87,-0.02 37.72,0.33 3.21,0.59 35,0 36.11,-0.23 2.71,-0.53 42.61,0 42.61,0 l -2.95,3.13 z m 14.7,-0.45 c -2.24,0.95 -6.56,0.45 -6.56,0.45 l -0.26,-3.13 c 0,0 3.74,0.7 6.32,0 2.59,-0.7 6.21,0 6.21,0 l 0.12,3.13 c 0,0 -3.37,-1.5 -5.83,-0.45 z"
         id="path27" />
      <polygon
         class="cls-11"
         points="819.38,133.91 820.53,97.59 821.36,56.18 824.81,56.18 825.79,133.91 "
         id="polygon27" />
      <g
         id="g29">
        <path
           class="cls-11"
           d="m 848.64,96.83 c 1.35,-4.23 0.99,-32.6 0,-37.31 -1.07,-5.09 0,-20.76 0,-20.76 H 703.45 c 0,0 -1.35,13.38 0,18.54 1.35,5.16 0.6,33.22 0,39.53 -0.6,6.31 0.6,32.44 0,39.34 -0.6,6.9 0,18.73 0,18.73 h 145.19 c 0,0 -1.35,-10.1 0,-19.47 1.35,-9.37 -1.35,-34.37 0,-38.6 z m -5.08,52.88 H 707.61 V 42.76 H 843.56 V 149.7 Z"
           id="path28" />
        <path
           class="cls-11"
           d="M 841.63,44.7 H 709.54 v 103.08 h 132.09 z m -10.25,96.39 H 720.7 v -12.81 c -3.82,-28.79 -0.34,-39.62 0,-58.18 V 52.56 h 110.68 c -0.89,6.17 -0.97,15.78 0,29.87 2.42,12.33 1.84,33.62 0,58.66 z"
           id="path29" />
      </g>
    </g>
  </g>
</svg>
