<?xml version="1.0" encoding="UTF-8" standalone="no"?>
<svg
   viewBox="0 0 258.31772 258.31773"
   version="1.1"
   id="svg52"
   width="258.31772"
   height="258.31772"
   xmlns="http://www.w3.org/2000/svg"
   xmlns:svg="http://www.w3.org/2000/svg">
  <defs
     id="defs2">
    <style
       id="style1">
      .cls-1 {
        fill: #c67924;
      }

      .cls-2 {
        fill: #a44819;
      }

      .cls-3 {
        fill: #e2cba2;
      }

      .cls-4 {
        fill: none;
      }

      .cls-5 {
        clip-path: url(#clippath-1);
      }

      .cls-6 {
        fill: #f26c37;
      }

      .cls-7 {
        fill: #588372;
      }

      .cls-8 {
        fill: #d0d2c1;
      }

      .cls-9 {
        fill: #ce8a39;
      }

      .cls-10 {
        fill: #599360;
      }

      .cls-11 {
        fill: #6b2b2c;
      }

      .cls-12 {
        fill: #45657c;
      }

      .cls-13 {
        clip-path: url(#clippath);
      }
    </style>
  </defs>
  <g
     id="Camada_2"
     transform="translate(-335.17872,-0.00355622)">
    <g
       id="sol">
      <g
         id="g21">
        <path
           class="cls-9"
           d="m 488.69,230.83 c -3.24,7.5 -6.31,15.03 -9.77,22.37 -0.89,1.89 -2.74,3.75 -4.61,4.64 -2.91,1.39 -5.31,-0.36 -5.89,-3.59 -1.47,-8.2 -2.88,-16.41 -4.44,-24.59 -0.58,-3.06 -1.74,-6.02 -2.15,-9.08 -0.18,-1.38 0.41,-3.68 1.4,-4.22 2.51,-1.39 5.38,-2.53 8.21,-2.83 3.98,-0.41 8.06,-0.05 12.09,0.13 3.8,0.17 5.67,1.92 5.67,5.63 0,3.87 2.3,7.85 -0.5,11.53 z"
           id="path14" />
        <path
           class="cls-9"
           d="m 460.75,46.8 c -0.74,-2.58 -1.96,-4.73 -1.79,-6.76 0.26,-3.02 1.19,-6.09 2.39,-8.9 2.28,-5.32 3.98,-10.68 4.35,-16.52 0.23,-3.61 1.08,-7.2 1.89,-10.74 0.84,-3.65 4.64,-5.11 7.5,-2.68 1.66,1.41 2.81,3.61 3.74,5.65 0.91,1.99 1.68,4.22 1.78,6.38 0.3,6.75 5.11,11.56 7.2,17.52 0.66,1.88 2.43,3.37 3.65,5.06 2.64,3.65 1.72,6.76 -2.55,7.77 -6.33,1.5 -12.7,2.94 -19.12,3.93 -2.68,0.41 -5.56,-0.4 -9.05,-0.72 z"
           id="path15" />
        <path
           class="cls-9"
           d="m 552.8,189.55 c 3.02,7.59 6.17,15.09 8.91,22.73 0.71,1.96 0.71,4.59 0.02,6.55 -1.07,3.04 -4.01,3.5 -6.7,1.62 -6.83,-4.76 -13.64,-9.56 -20.53,-14.25 -2.57,-1.75 -5.49,-3.02 -7.95,-4.9 -1.1,-0.84 -2.31,-2.9 -2,-3.98 0.79,-2.75 2.01,-5.6 3.8,-7.8 2.53,-3.11 5.67,-5.73 8.64,-8.46 2.81,-2.57 5.37,-2.65 7.99,-0.03 2.74,2.73 7.18,3.92 7.8,8.51 z"
           id="path16" />
        <path
           class="cls-9"
           d="m 402.91,79.18 c -2.35,-1.3 -4.73,-1.95 -6.05,-3.51 -1.95,-2.31 -3.47,-5.14 -4.6,-7.98 -2.15,-5.37 -4.74,-10.37 -8.61,-14.76 -2.39,-2.71 -4.33,-5.85 -6.25,-8.93 -1.98,-3.18 -0.33,-6.89 3.41,-7.2 2.17,-0.18 4.53,0.57 6.64,1.35 2.05,0.76 4.17,1.79 5.77,3.25 4.98,4.56 11.78,4.56 17.48,7.29 1.8,0.86 4.1,0.66 6.16,1 4.44,0.72 6,3.57 3.7,7.3 -3.42,5.54 -6.9,11.06 -10.74,16.31 -1.61,2.19 -4.21,3.65 -6.91,5.89 z"
           id="path17" />
        <path
           class="cls-9"
           d="m 413.07,210.07 c -7.59,3.02 -15.09,6.17 -22.73,8.91 -1.96,0.71 -4.59,0.71 -6.55,0.02 -3.04,-1.07 -3.5,-4.01 -1.62,-6.7 4.76,-6.83 9.56,-13.64 14.25,-20.53 1.75,-2.57 3.02,-5.49 4.9,-7.95 0.84,-1.1 2.9,-2.31 3.98,-2 2.75,0.79 5.6,2.01 7.8,3.8 3.11,2.53 5.73,5.67 8.46,8.64 2.57,2.81 2.65,5.37 0.03,7.99 -2.73,2.74 -3.92,7.18 -8.51,7.8 z"
           id="path18" />
        <path
           class="cls-9"
           d="m 523.44,60.18 c 1.3,-2.35 1.95,-4.73 3.51,-6.05 2.31,-1.95 5.14,-3.47 7.98,-4.6 5.37,-2.15 10.37,-4.74 14.76,-8.61 2.71,-2.39 5.85,-4.33 8.93,-6.25 3.18,-1.98 6.89,-0.33 7.2,3.41 0.18,2.17 -0.57,4.53 -1.35,6.64 -0.76,2.05 -1.79,4.17 -3.25,5.77 -4.56,4.98 -4.56,11.78 -7.29,17.48 -0.86,1.8 -0.66,4.1 -1,6.16 -0.72,4.44 -3.57,6 -7.3,3.7 -5.54,-3.42 -11.06,-6.9 -16.31,-10.74 -2.19,-1.61 -3.65,-4.21 -5.89,-6.91 z"
           id="path19" />
        <path
           class="cls-9"
           d="m 362.67,141.92 c -7.5,-3.24 -15.03,-6.31 -22.37,-9.77 -1.89,-0.89 -3.75,-2.74 -4.64,-4.61 -1.39,-2.91 0.36,-5.31 3.59,-5.89 8.2,-1.47 16.41,-2.88 24.59,-4.44 3.06,-0.58 6.02,-1.74 9.08,-2.15 1.38,-0.18 3.68,0.41 4.22,1.4 1.39,2.51 2.53,5.38 2.83,8.21 0.41,3.98 0.05,8.06 -0.13,12.09 -0.17,3.8 -1.92,5.67 -5.63,5.67 -3.87,0 -7.85,2.3 -11.53,-0.5 z"
           id="path20" />
        <path
           class="cls-9"
           d="m 546.7,113.97 c 2.58,-0.74 4.73,-1.96 6.76,-1.79 3.02,0.26 6.09,1.19 8.9,2.39 5.32,2.28 10.68,3.98 16.52,4.35 3.61,0.23 7.2,1.08 10.74,1.89 3.65,0.84 5.11,4.64 2.68,7.5 -1.41,1.66 -3.61,2.81 -5.65,3.74 -1.99,0.91 -4.22,1.68 -6.38,1.78 -6.75,0.3 -11.56,5.11 -17.52,7.2 -1.88,0.66 -3.37,2.43 -5.06,3.65 -3.65,2.64 -6.76,1.72 -7.77,-2.55 -1.5,-6.33 -2.94,-12.7 -3.93,-19.12 -0.41,-2.68 0.4,-5.56 0.72,-9.05 z"
           id="path21" />
      </g>
      <g
         id="g23">
        <path
           class="cls-9"
           d="m 474.91,182.67 c -18.04,5.3 -33.29,1.55 -45.32,-11.15 -15.97,-16.85 -20.87,-44.16 -17.1,-54.82 5.23,-14.79 18.49,-33.8 35.26,-40.59 10.7,-4.33 22.15,-3.54 34.03,2.37 16.03,7.96 25.54,20.19 26.8,34.43 1.3,14.81 -6.77,29.82 -22.14,41.2 -18.48,13.67 -35.03,13.87 -45.41,0.54 -9.8,-12.6 -11.41,-35.25 1.21,-45.58 15.93,-13.04 31.56,-12.43 38.19,-5.25 6.92,7.51 3.55,20.5 -8.6,33.09 -3.12,3.23 -6.07,4.52 -8.77,3.84 -3.73,-0.94 -7.49,-5.4 -8.94,-10.59 -0.91,-3.26 -0.68,-6.2 0.58,-7.48 4.11,-4.16 7.1,-4.5 7.92,-4.5 h 0.02 c 0.67,0 0.98,0.18 1.02,0.2 0.16,0.32 0.03,2.84 -4.27,6.32 l 4.21,5.21 c 5.02,-4.06 7.45,-8.7 6.65,-12.75 -0.5,-2.58 -2.3,-4.51 -4.92,-5.3 -4.52,-1.36 -10.27,0.92 -15.39,6.11 -3.06,3.1 -3.88,8.2 -2.27,13.99 1.77,6.32 6.7,13.5 13.75,15.28 5.13,1.3 10.39,-0.67 15.23,-5.68 17.99,-18.65 15.93,-34.44 8.7,-42.28 -8.91,-9.67 -28.04,-11.2 -47.35,4.6 -15.72,12.86 -14.16,39.58 -2.26,54.87 12.74,16.36 33.18,16.64 54.68,0.73 17.29,-12.79 26.35,-29.98 24.83,-47.17 -1.44,-16.41 -12.56,-30.93 -30.49,-39.84 -13.68,-6.8 -26.98,-7.67 -39.53,-2.58 -21.47,8.7 -34.66,32.11 -39.06,44.57 -4.42,12.5 0.61,42.73 18.55,61.66 9.56,10.09 26.35,20.52 52.07,12.97 53.21,-15.63 57.46,-53.05 56.02,-79.83 l 0.7,-0.04 -7.39,0.4 c 1.31,24.51 -2.57,58.76 -51.22,73.05 z"
           id="path22" />
        <path
           class="cls-9"
           d="m 540.91,108.82 -6.69,0.36 c 0.62,11.65 0.47,26.93 -6.32,41.82 -8.57,18.81 -25.63,32.08 -50.71,39.44 -6.31,1.85 -12.09,2.65 -17.38,2.65 -16.85,0 -28.64,-8.11 -36.12,-16 -18.57,-19.6 -23.5,-49.96 -18.86,-63.1 4.48,-12.68 17.92,-36.52 39.86,-45.41 12.94,-5.24 26.63,-4.36 40.69,2.63 18.38,9.13 29.78,24.07 31.26,40.98 1.56,17.68 -7.7,35.33 -25.4,48.42 -22.19,16.42 -43.36,16.04 -56.63,-1 -12.3,-15.8 -13.85,-43.47 2.48,-56.83 19.99,-16.35 39.92,-14.63 49.28,-4.47 7.65,8.3 9.95,24.86 -8.72,44.22 -6.58,6.82 -12.65,7.07 -16.59,6.07 -7.6,-1.92 -12.89,-9.56 -14.77,-16.27 -1.76,-6.29 -0.8,-11.89 2.62,-15.36 5.49,-5.57 11.77,-7.99 16.8,-6.47 3.09,0.93 5.3,3.32 5.9,6.38 0.9,4.58 -1.71,9.72 -7.15,14.12 l -0.44,-0.55 4.65,5.76 c 7.44,-6.01 10.91,-13.52 9.52,-20.61 -1.09,-5.54 -5.03,-9.85 -10.54,-11.51 -7.56,-2.28 -16.12,0.7 -23.5,8.18 -5.16,5.23 -6.73,13.2 -4.3,21.87 2.92,10.47 10.61,18.7 19.58,20.96 4.63,1.17 13.78,1.7 23.05,-7.92 8.96,-9.29 14.45,-19.26 15.88,-28.83 1.4,-9.39 -1.1,-18.12 -7.05,-24.58 -11.49,-12.47 -35.26,-15.16 -58.45,3.82 -9.06,7.41 -14.19,18.88 -14.45,32.29 -0.24,12.28 3.75,24.61 10.92,33.84 12.18,15.65 35.89,24.47 65.9,2.27 19.62,-14.51 29.85,-34.34 28.09,-54.4 -1.7,-19.29 -14.44,-36.2 -34.96,-46.39 -15.85,-7.88 -31.39,-8.83 -46.18,-2.84 -24.15,9.78 -38.81,35.64 -43.66,49.38 -5.9,16.71 0.98,49.54 20.31,69.94 8.47,8.94 21.8,18.13 40.81,18.13 5.92,0 12.39,-0.89 19.44,-2.96 27.03,-7.94 45.51,-22.44 54.92,-43.09 7.39,-16.22 7.58,-32.54 6.91,-44.96 z"
           id="path23" />
      </g>
    </g>
  </g>
</svg>
