<?xml version="1.0" encoding="UTF-8" standalone="no"?>
<svg
   version="1.1"
   viewBox="0 0 151.39999 35.400002"
   id="svg109979"
   width="151.39999"
   height="35.400002"
   xmlns="http://www.w3.org/2000/svg"
   xmlns:svg="http://www.w3.org/2000/svg">
  <defs
     id="defs109931">
    <style
       id="style1">
      .cls-1 {
        fill: #010101;
      }

      .cls-2 {
        fill: #c67924;
      }

      .cls-3 {
        clip-path: url(#clippath-4);
      }

      .cls-4 {
        fill: #a44818;
      }

      .cls-5 {
        mask: url(#mask-1);
      }

      .cls-6, .cls-7 {
        fill: #a44819;
      }

      .cls-8 {
        mask: url(#mask);
      }

      .cls-9 {
        fill: #ce8a39;
      }

      .cls-9, .cls-10, .cls-7, .cls-11 {
        display: none;
      }

      .cls-12 {
        filter: url(#luminosity-noclip-2);
      }

      .cls-13, .cls-14, .cls-15 {
        fill: none;
      }

      .cls-16 {
        mask: url(#mask-2);
      }

      .cls-10 {
        fill: #d0d2c1;
      }

      .cls-17 {
        filter: url(#luminosity-noclip-3);
      }

      .cls-18 {
        clip-path: url(#clippath-1);
      }

      .cls-19 {
        isolation: isolate;
      }

      .cls-20 {
        clip-path: url(#clippath-3);
      }

      .cls-21 {
        fill: #1d1d1b;
      }

      .cls-14 {
        stroke-width: 2px;
      }

      .cls-14, .cls-15 {
        stroke: #a44819;
        stroke-miterlimit: 10;
      }

      .cls-22 {
        clip-path: url(#clippath-2);
      }

      .cls-23 {
        clip-path: url(#clippath);
      }

      .cls-24 {
        filter: url(#luminosity-noclip);
      }
    </style>
  </defs>
  <!-- Generator: Adobe Illustrator 28.7.1, SVG Export Plug-In . SVG Version: 1.2.0 Build 142)  -->
  <g
     id="g109980"
     style="display:inline"
     transform="translate(-671.9,-728.4)">
    <g
       id="g109979">
      <g
         id="g109977">
        <path
           class="cls-4"
           d="m 708,763.6 c 0,0 0,0 0,-0.2 l -0.5,-7.1 c 0,0 1.8,-2.6 5.5,-7.6 3.6,-5 5.5,-7.5 5.5,-7.5 0,0 0,-0.7 0.3,-2 0.2,-1.3 0.3,-2 0.3,-2 0,-1.2 0,-1.8 0,-1.8 0,0 0,0 -0.1,0 -1.9,-0.5 -2.9,-0.7 -2.9,-0.7 l -6.5,2.3 c -0.1,0 -0.2,0 -0.2,-0.2 l -1.7,-5 c 0,-0.1 0,-0.2 0.2,-0.2 5.3,-1.9 8,-2.8 8.1,-2.8 l 8.6,2.1 c 0.1,0 0.2,0.1 0.2,0.2 v 6.5 c -0.4,3.9 -0.6,5.9 -0.7,6 -2.1,2.9 -4.1,4.7 -5.6,6.7 -3.3,4.6 -4.8,7.6 -4.8,7.6 0,0 0,0 0,0.1 0,0 0,0 0.2,0 h 9.3 c 0,0 0.1,0 0.2,0 0,0 0,0 0,0.2 l 0.4,2.6 -0.4,2.6 c 0,0 0,0.1 0,0.2 0,0 0,0 -0.2,0 l -7.4,-0.9 -7.4,0.9 c 0,0 -0.1,0 -0.2,0 z"
           id="path109974" />
        <path
           class="cls-4"
           d="m 729.1,755.1 c 0,0 -0.1,0 -0.2,0 -1.7,-2.6 -2.5,-4 -2.5,-4 l 0.8,-11.1 v -9.4 c 0,0 0,-0.1 0.2,-0.2 l 6.8,-1.2 6.3,0.9 c 0,0 0.1,0 0.2,0 1.9,3.3 2.8,5 2.8,5 l 0.4,12.5 -2.1,7.3 c 0,0 0,0.1 -0.2,0.1 l -6.4,-0.4 -6,0.4 z m 8.4,-4.4 0.7,-3.4 V 736 c 0.1,0 -0.2,-0.6 -0.8,-1.6 0,0 0,0 -0.2,-0.1 h -5 c -0.1,0.1 -0.2,0.2 -0.2,0.3 l -0.4,5.4 v 9.9 c 0,0 0.1,0.3 0.4,0.8 0,0 0.1,0 0.2,0 h 5.1 c 0.1,0 0.2,0 0.2,-0.1 z"
           id="path109975" />
        <path
           class="cls-4"
           d="m 746.6,763.3 c 0,0 0,0 0,-0.2 L 746,756 c 0,0 1.3,-2.3 5.8,-7.3 0.7,-0.8 3,-1.9 3.6,-2.6 3.2,-3.5 4.2,-5.3 4.2,-5.3 0,0 0.1,-0.7 0.3,-2 0.2,-1.3 0.3,-2 0.3,-2 0,-1.2 0,-1.8 -0.1,-1.8 0,0 0,0 -0.1,0 -2.3,-0.5 -3.6,-0.7 -3.7,-0.7 l -8,2.3 c -0.1,0 -0.2,0 -0.3,-0.2 l -2.1,-5 c 0,-0.1 0,-0.2 0.2,-0.2 6.6,-1.9 9.9,-2.8 10,-2.8 l 5.6,0.3 5.1,1.8 c 0.1,0 0.2,0.1 0.2,0.2 v 6.5 c -0.5,3.9 -0.4,6.2 -0.4,6.2 -2.8,3.1 -4.9,6.1 -6.8,8.2 -4,4.3 -6.4,5.8 -6.4,5.8 0,0 0,0 0,0.1 0,0 0.1,0 0.2,0 h 11.5 c 0,0 0.1,0 0.2,0 0,0 0,0 0,0.2 l -0.7,2.9 0.7,2.4 c 0,0 0,0.1 0,0.2 0,0 -0.1,0 -0.2,0 l -9,0.6 -9.3,-0.6 c 0,0 -0.1,0 -0.2,0 z"
           id="path109976" />
        <path
           class="cls-4"
           d="m 770.6,762.9 c 0,0 0,0 -0.1,0 0,0 0,0 0,-0.1 l 0.5,-5.1 c 0,-0.1 0.1,-0.2 0.3,-0.2 l 8.1,0.6 c 0.1,0 0.2,0 0.2,0 1.5,-2 2.3,-3.1 2.3,-3.1 0,0 0,0 0,0 -0.4,-3.2 -0.6,-4.8 -0.6,-4.8 0,0 -0.3,-0.2 -0.9,-0.5 -0.6,-0.3 -0.9,-0.5 -1,-0.5 h -5.9 c 0,0 -0.1,0 -0.2,0 -2,-2.1 -3,-3.2 -3,-3.2 0.2,-0.9 0.7,-1.4 1,-2.2 0.5,-1.8 0.6,-3.6 0.9,-5 0.3,-1.4 0.3,-2.7 0.4,-3.9 0.4,-2.7 0.8,-4.4 0.9,-4.4 0,0 0,0 0.1,0 l 7.9,-1.1 6.6,0.9 c 0,0 0.1,0 0.2,0 0,0 0,0 0,0.1 l 0.3,5.1 c 0,0 0,0.1 0,0.1 0,0 -0.1,0 -0.2,0 l -7,0.3 h -2.7 c -0.1,0 -0.2,0 -0.3,0.1 l -1.4,7.3 c 0,0 0,0.1 0,0.2 0,0 0,0 0.2,0 h 3.8 c 0,0 1.1,0.5 3.1,1.5 2,1 3,1.6 3,1.6 0,0 0,0 0,0 l 1.1,9.5 c 0,0 -0.2,1 -1.4,2.6 -1.2,1.6 -1.8,1.3 -2.3,1.9 -0.7,1 -0.9,1.7 -1.9,3 0,0 -0.1,0 -0.2,0 l -5.7,-0.9 h -6 z"
           id="path109977" />
      </g>
    </g>
    <polygon
       class="cls-4"
       points="741.8,760.6 741.9,763.3 734,763 726.7,763.3 726.4,760.3 726.7,757.6 730.3,757.6 734.3,757.3 741.9,757.6 "
       id="polygon109977" />
    <polygon
       class="cls-4"
       points="822.7,746.5 823.3,750.1 808.7,749.4 794.6,750.1 793.8,746.1 794.6,742.6 801.5,743 809.2,742 823.3,742.6 "
       id="polygon109978" />
    <polygon
       class="cls-4"
       points="700.7,746.9 701.9,750.1 686.9,749 673.2,750.1 671.9,746.1 673.2,742.6 680.2,743.4 687.8,741.4 701.9,742.6 "
       id="polygon109979" />
  </g>
</svg>
