<?xml version="1.0" encoding="UTF-8" standalone="no"?>
<svg
   version="1.1"
   viewBox="0 0 424.77237 676.90192"
   id="svg109979"
   width="424.77237"
   height="676.90192"
   xmlns="http://www.w3.org/2000/svg"
   xmlns:svg="http://www.w3.org/2000/svg">
  <defs
     id="defs109931">
    <style
       id="style1">
      .cls-1 {
        fill: #010101;
      }

      .cls-2 {
        fill: #c67924;
      }

      .cls-3 {
        clip-path: url(#clippath-4);
      }

      .cls-4 {
        fill: #a44818;
      }

      .cls-5 {
        mask: url(#mask-1);
      }

      .cls-6, .cls-7 {
        fill: #a44819;
      }

      .cls-8 {
        mask: url(#mask);
      }

      .cls-9 {
        fill: #ce8a39;
      }

      .cls-9, .cls-10, .cls-7, .cls-11 {
        display: none;
      }

      .cls-12 {
        filter: url(#luminosity-noclip-2);
      }

      .cls-13, .cls-14, .cls-15 {
        fill: none;
      }

      .cls-16 {
        mask: url(#mask-2);
      }

      .cls-10 {
        fill: #d0d2c1;
      }

      .cls-17 {
        filter: url(#luminosity-noclip-3);
      }

      .cls-18 {
        clip-path: url(#clippath-1);
      }

      .cls-19 {
        isolation: isolate;
      }

      .cls-20 {
        clip-path: url(#clippath-3);
      }

      .cls-21 {
        fill: #1d1d1b;
      }

      .cls-14 {
        stroke-width: 2px;
      }

      .cls-14, .cls-15 {
        stroke: #a44819;
        stroke-miterlimit: 10;
      }

      .cls-22 {
        clip-path: url(#clippath-2);
      }

      .cls-23 {
        clip-path: url(#clippath);
      }

      .cls-24 {
        filter: url(#luminosity-noclip);
      }
    </style>
  </defs>
  <!-- Generator: Adobe Illustrator 28.7.1, SVG Export Plug-In . SVG Version: 1.2.0 Build 142)  -->
  <path
     class="cls-14"
     d="m 380.54714,474.13748 c -2.2,1.3 -4.5,2.5 -6.7,3.9 -1,0.6 -1.7,1.9 -2.7,2.5 -7.5,4.5 -12.8,10.8 -16.3,19.9 -2,5.3 -7,8.3 -12,9.9 -4.5,1.4 -7.2,4.2 -6.8,9.9 0.2,3 -1.3,3.4 -3.5,2.9 -1.7,-0.4 -3.4,-0.3 -5.2,-0.5 -3,-0.4 -5.2,0.5 -6.4,3.9 -0.4,1 -1.3,1.9 -2.1,2.5 -2.1,1.7 -2.9,3.2 -1.1,6.2 0.7,1.1 0,4.4 -1.1,5.5 -1.9,2.1 -4.4,4.1 -6.9,4.7 -5.3,1.2 -10.8,1.7 -16.2,1.8 -2.5,0 -4.9,-1.8 -7.4,-2.7 -4.4,-1.7 -7.9,-0.3 -10.7,3.8 -3.6,5.2 -6.9,11 -11.2,15.4 -2.4,2.4 -6.8,3.3 -10.3,3.2 -6.6,-0.2 -13.1,-1.5 -19.6,-2.6 -1,-0.2 -2.2,-1.4 -2.8,-2.4 -1.9,-3 -4,-6 -5.2,-9.3 -1.9,-5.3 -5.7,-6.1 -9.8,-5.9 -5.9,0.3 -11.8,0.9 -17.6,1.6 -2.4,0.3 -4.2,-0.2 -6,-1.9 -5.5,-5 -7.6,-4.8 -11.9,1.6 -2.3,3.3 -5.1,4.7 -8.7,4.7 -1.5,0 -3.1,-0.1 -4.5,0.4 -4.3,1.6 -6.2,8.4 -3.1,12.4 4,5.1 5.4,10.6 5.4,17.3 0,2.3 1.8,4.9 3.3,6.9 3.6,4.8 3.7,8 -0.5,11.8 -2.9,2.6 -4.1,5.9 -5.4,9.6 -1.5,4.5 -3.7,9.7 -6.9,12.2 -8.9,6.9 -14.8,15.9 -19.1,26.8 -2.8,7.1 -8.4,8.2 -13.6,3.2 -2.7,-2.7 -5.9,-4 -9.6,-2.1 -7,3.8 -14,7.4 -20.900003,11.5 -2.2,1.3 -3.8,3.7 -5.6,5.8 -0.9,1.1 -1.6,2.6 -2.4,3.9 -2.7,4.2 -6.1,4.6 -9.3,1.1 -2.8,-3.1 -5.6,-5 -10.1,-4.3 -4,0.6 -8.1,-1.1 -10.5,-5.8 -2,-3.8 -4.8,-6.8 -9.3,-6.1 -2.2,0.3 -3,-1 -3.4,-3.3 -1.2,-6.5 -2.7,-13 -4,-19.5 -1,-4.8 -4,-7.6 -7.5,-9.7 -2.7,-1.6 -5.9,-2.2 -8.8,-3.5 -4.9,-2.2 -8.6,-0.1 -11.7,3.9 -1.9,2.5 -3.7,2.9 -6.2000003,1.2 -2,-1.3 -4.3,-1.8 -6.3,-3 -0.7,-0.4 -1.50000001,-2.4 -1.3,-2.6 2.9,-3.5 2.6,-8.4 4.4,-12.3 1,-2.2 2,-4.4 2.4,-6.8 0.4,-1.9 0,-4 0,-6 0,-1.8 -0.2,-3.8 0.4,-5.3 1.5,-3.1 2.1000003,-6.2 1.8000003,-9.8 -0.4000003,-3.7 -0.6000003,-7.7 0.1,-11.3 0.6,-3 2.1,-6.2 4.1,-8.1 3,-2.9 3.5,-6.8 1.8,-9.4 -4.9,-7.4 -6.4000003,-15.6 -6.9000003,-24.5 -0.7,-11.8 -3.4,-23.7 2.3000003,-35 5,-10 10,-20 14.9,-30.1 1.2,-2.4 2.5,-4.8 3,-7.4 1.1,-5.7 3,-10.9 6.2,-15.5 1.4,-1.9 2.2,-5.2 1.8,-7.6 -0.9,-5.6 0.2,-10.7 1.8,-15.8 2.1,-6.8 4.3,-13.5 6.9,-20 0.9,-2.2 3.1,-4.3 5.1,-5.3 5.8,-2.7 11.8,-5.2 17.9,-7 2.8,-0.9 6,-0.4 8.9,0 4,0.6 7.3,-0.6 10,-3.9 1.6,-1.9 3.1,-3.9 4.6,-5.9 2.2,-3 5,-3.9 8.000003,-2.6 5.1,2.2 9,-0.2 12.6,-3.7 3,-2.9 5.8,-6.1 8.7,-9 4.1,-4.1 9,-6.2 14.5,-6.8 1.2,-0.1 2.9,-1.2 3.4,-2.3 3.9,-9.2 10.4,-16 16.9,-22.7 1.5,-1.6 4.1,-2.3 6.3,-2.6 3.9,-0.5 7.7,0 11.4,-3.2 2.5,-2.1 6.3,-2.6 9.6,-2.9 2.4,-0.2 5,0.9 6.2,4 0.7,1.9 2.2,3.7 2.3,5.7 0.6,7.7 5.9,8 10.7,9.1 0.7,0.2 2.2,-1 2.5,-1.8 2.7,-7.4 7,-9.8 14.1,-8 4.7,1.2 9.9,0.8 14.8,0.3 4.3,-0.4 7.8,-7 7.7,-11.9 0,-3.8 1,-7.7 1.3,-11.6 0.2,-2.4 0.4,-4.9 0,-7.3 -1.3,-10.5 -5.9,-19.1 -11.8,-27 -5.3,-7 -7.1,-15.1 -5.7,-24.2 0.1,-0.8 0.1,-1.8 0.5,-2.2 5.2,-5 4.9,-12.4 6.5,-19 0.4,-1.6 1.4,-3.3 2.6,-4.3 8,-6.7 13.3,-15.7 16.3,-26.2 1,-3.5 0.4,-7.9 -0.5,-11.6 -1.7,-6.1 -4.1,-11.9 -9,-15.9 -3.1,-2.5 -2.2,-6.7 -2.3,-10.2 -0.2,-3.2 0.8,-6.2 3.2,-8.7 4.1,-4.3 5.5,-13.7 2.8,-19 -1.2,-2.3 -3.6,-4 -5.6,-5.7 -1.9,-1.5 -2.1,-3.2 -2,-5.7 0.3,-4.9 1.2,-9.2 4.9,-12.3 0.8,-0.6 1.1,-2.2 1.3,-3.5 0.9,-7.099995 4.2,-12.099995 9.8,-15.099995 1.4,-0.7 2.7,-1.4 4,-2.3 2.6,-1.8 4,-4.2 4.2,-8 0.3,-6.1 0.4,-12.5 1.8,-18.3 0.8,-3.3 3.7,-6.1 6.2,-8.5 2.1,-2 5,-4.2 7.4,-4 6.1,0.5 10.8,-4.5 16.6,-4.5 0.9,0 1.8,-0.1 2.8,-0.2 3.3,-0.2 5.1,-1.7 7.1,-5.2 3.1,-5.3 8,-9.3 12.3,-13.6 2.3,-2.3 5.4,-3.9 7.2,-6.6 1.9,-2.8 3.3,-6.5000004 3.9,-10.0000004 0.5,-2.8 1.1,-3.99999998 3.6,-3.7 4.3,0.5 8.8,0 11.2,5.7 0.5,1.2 2.5,2 3.9,2.3 3.9,0.8 7.8,1.7000004 11.9,0 2.9,-1.1 6.4,-1 9.6,-0.6 3.5,0.4 4.8,7.7000004 1.5,10.5000004 -6.9,5.8 -9.6,14.5 -13.9,22.2 -3,5.4 -1,10.3 1,14.8 1.7,4 2.8,7.6 1.9,12 -0.7,3.2 0,5.7 2.3,8.4 3.3,3.9 7.7,6.9 8.7,12.9 0.2,1.3 0.2,2.6 0.6,3.8 0.6,1.8 1.1,4 2.3,5.2 2.8,2.699995 4.1,5.899995 4,9.899995 0,3.8 0.2,7.4 2.1,10.9 2.1,3.9 0.4,11.1 -2.4,15.1 -2.5,3.5 -4.7,7.5 -6.5,11.5 -1.7,3.6 -0.6,6.4 2.8,8.2 1.1,0.6 2.5,1 3.3,2 2.1,2.4 1.5,5.1 -1.6,8.3 -3.5,3.5 -3.6,5.6 -0.7,9.9 2.8,4.1 6.1,7.9 8.4,12.3 2.8,5.4 3,11.7 1.2,17.6 -1.2,4.2 -0.3,7.3 1.5,10.7 1.4,2.5 3.3,4.7 2.5,8.2 -0.2,0.9 0.9,2.3 1.5,3.4 1.2,1.9 2.5,3.8 3.7,5.7 4.1,6.4 0,11.5 -1.9,17 -1.1,3.1 -2.5,6.1 -3.3,9.4 -1.5,6.4 0.8,11.6 4.8,15.9 5.3,5.7 7.5,12.8 7.3,20.8 -0.1,4.8 -1.5,9.5 -1.5,14.3 0,5.8 1,11.6 1.7,17.4 0,0.7 1,1.4 1.7,1.8 6.1,4 12.2,8.1 18.3,11.8 3.2,1.9 4.9,4.8 4,8.9 -1.4,5.8 -3.1,11.2 -7.5,15.4 -5.5,5.2 -9.8,11.6 -7.6,20.9 0.8,3.5 -0.5,5.9 -3.3,7.8 -5.3,3.6 -5.3,4.4 -0.8,9.1 1.4,1.4 2.7,3 3.5,4.8 1.4,3 2.2,5.9 -0.8,8.7 -2.9,2.9 -2.8,8.4 -0.3,11.8 1.1,1.5 2.4,2.9 3.4,4.5 1.7,3 2.4,6.1 0.9,9.6 -1.8,4.1 -3.5,8.3 -5,12.6 -1.3,3.8 -3.3,6.8 -6.2,9.2 -3.4,2.8 -6.4,6.1 -9.9,8.5 -2.7,1.9 -6,2.8 -9,4.2 -0.3,-0.6 -0.5,-1.3 -0.8,-1.9 z"
     id="path109932"
     style="display:inline" />
</svg>
